<svg width="57" height="56" viewBox="0 0 57 56" fill="none" xmlns="http://www.w3.org/2000/svg">
<g clip-path="url(#clip0_5388_28360)">
<path d="M24.0508 50.5934C35.2367 50.5934 44.3047 41.5263 44.3047 30.3416C44.3047 19.1569 35.2367 10.0898 24.0508 10.0898C12.8649 10.0898 3.79688 19.1569 3.79688 30.3416C3.79688 41.5263 12.8649 50.5934 24.0508 50.5934Z" fill="#FEDF30"/>
<path d="M30.3732 11.0938C34.6043 14.8056 37.2761 20.2513 37.2761 26.3216C37.2761 37.5063 28.2081 46.5733 17.0222 46.5733C14.814 46.5733 12.6889 46.2187 10.6992 45.5654C14.264 48.6927 18.9354 50.5894 24.0503 50.5894C35.2362 50.5894 44.3042 41.5224 44.3042 30.3376C44.3043 21.3608 38.4625 13.7495 30.3732 11.0938Z" fill="#FED402"/>
<path d="M24.0551 46.9113C33.2068 46.9113 40.6258 39.4932 40.6258 30.3424C40.6258 21.1916 33.2068 13.7734 24.0551 13.7734C14.9033 13.7734 7.48438 21.1916 7.48438 30.3424C7.48438 39.4932 14.9033 46.9113 24.0551 46.9113Z" fill="white"/>
<path d="M35.7539 18.6133C36.7343 20.9909 37.2764 23.5953 37.2764 26.3268C37.2764 36.5459 29.706 44.9957 19.8672 46.3787C21.2035 46.7263 22.6054 46.9117 24.0506 46.9117C33.2023 46.9117 40.6213 39.4936 40.6213 30.3428C40.6212 25.7604 38.7606 21.6128 35.7539 18.6133Z" fill="#F8F6F6"/>
<path d="M24.0531 13.043C14.5122 13.043 6.75 20.8044 6.75 30.3443C6.75 39.8843 14.5121 47.6457 24.0531 47.6457C33.5941 47.6457 41.3563 39.8844 41.3563 30.3443C41.3563 20.8043 33.5941 13.043 24.0531 13.043ZM32.5959 43.6744L31.3691 41.5499C31.1668 41.1996 30.7188 41.0796 30.3687 41.2818C30.0184 41.4841 29.8983 41.932 30.1006 42.2824L31.3281 44.4084C29.1484 45.5402 26.6743 46.1809 24.0531 46.1809C21.43 46.1809 18.9542 45.5393 16.7732 44.4059C16.7893 44.3842 16.8049 44.362 16.8187 44.3382L18.0056 42.2825C18.2078 41.9322 18.0878 41.4843 17.7375 41.2819C17.3873 41.0796 16.9392 41.1997 16.737 41.55L15.5501 43.6057C15.5366 43.629 15.5248 43.6528 15.5142 43.677C13.5923 42.4421 11.9536 40.8034 10.7187 38.8817C10.743 38.871 10.7673 38.8599 10.7908 38.8462L12.8462 37.6597C13.1965 37.4574 13.3165 37.0095 13.1143 36.6592C12.9121 36.3088 12.4642 36.1888 12.1138 36.3911L10.0584 37.5776C10.0344 37.5915 10.0116 37.6067 9.98984 37.6229C8.85645 35.4423 8.21484 32.967 8.21484 30.3443C8.21484 27.7234 8.85557 25.2496 9.9875 23.0701L12.1138 24.2976C12.2292 24.3642 12.3551 24.3958 12.4793 24.3958C12.7324 24.3958 12.9786 24.2644 13.1143 24.0294C13.3165 23.6791 13.1965 23.2312 12.8462 23.0289L10.7216 21.8024C11.9554 19.884 13.5917 18.2479 15.5104 17.0142L16.737 19.1387C16.8728 19.3736 17.1188 19.505 17.372 19.505C17.4962 19.505 17.6222 19.4733 17.7375 19.4067C18.0878 19.2045 18.2078 18.7565 18.0056 18.4062L16.778 16.2803C18.7535 15.2545 20.971 14.6328 23.3206 14.5254V16.9823C23.3206 17.3868 23.6484 17.7147 24.053 17.7147C24.4576 17.7147 24.7854 17.3868 24.7854 16.9823V14.5254C32.9371 14.8983 39.5008 21.4612 39.8738 29.6119H37.4165C37.0119 29.6119 36.6841 29.9398 36.6841 30.3443C36.6841 30.7488 37.0119 31.0768 37.4165 31.0768H39.8738C39.7663 33.426 39.1446 35.6432 38.1187 37.6185L35.9924 36.391C35.6418 36.1888 35.194 36.3088 34.9919 36.6592C34.7896 37.0095 34.9097 37.4574 35.26 37.6597L37.3846 38.8861C36.1509 40.8046 34.5146 42.4407 32.5959 43.6744Z" fill="#FEE97D"/>
<path d="M11.3935 28.7699L7.67471 25.0512C6.85127 24.2277 5.51631 24.2277 4.69287 25.0512C0.534668 29.2094 0.534668 35.9512 4.69287 40.1094L14.4613 49.8778C18.6195 54.036 25.3613 54.036 29.5195 49.8778C30.343 49.0544 30.343 47.7194 29.5195 46.896L25.8008 43.1772C24.9773 42.3538 23.6424 42.3538 22.8189 43.1772L21.6172 44.379C20.4 45.5962 18.4266 45.5962 17.2095 44.379L10.1918 37.3613C8.97461 36.1441 8.97461 34.1707 10.1918 32.9536L11.3936 31.7519C12.2169 30.9283 12.2169 29.5934 11.3935 28.7699Z" fill="#0593FC"/>
<path d="M28.1553 45.5352C25.043 47.42 21.3924 48.5052 17.4882 48.5052C15.7567 48.5052 14.0756 48.2906 12.4688 47.8888L14.4617 49.8817C18.6199 54.0399 25.3617 54.0399 29.5199 49.8817C30.3434 49.0583 30.3434 47.7233 29.5199 46.8999L28.1553 45.5352Z" fill="#0182FC"/>
<path d="M34.0171 24.6167C30.0205 22.3093 27.5586 18.045 27.5586 13.4303V9.55042C27.5586 9.10754 27.7948 8.69836 28.1784 8.47688L37.3772 3.16604C37.7607 2.94465 38.2333 2.94465 38.6168 3.16604L47.8156 8.47688C48.1991 8.69827 48.4354 9.10754 48.4354 9.55042V13.4304C48.4354 18.0452 45.9734 22.3095 41.977 24.6168L38.6169 26.5568C38.2334 26.7782 37.7608 26.7782 37.3773 26.5568L34.0171 24.6167Z" fill="#00F2A6"/>
<path d="M47.8167 8.47559L42.4124 5.35547V11.1584C42.4124 15.7732 39.9504 19.0335 35.9539 21.3408L32.3164 23.4409C32.8468 23.8731 33.4147 24.267 34.0184 24.6155L37.3784 26.5555C37.7619 26.7769 38.2345 26.7769 38.618 26.5555L41.978 24.6155C45.9746 22.3081 48.4365 18.0438 48.4365 13.4291V9.54912C48.4364 9.10625 48.2002 8.69697 47.8167 8.47559Z" fill="#05E39C"/>
<path d="M35.8765 21.3973C33.0305 19.7542 31.2773 16.7176 31.2773 13.4314V11.3407C31.2773 11.1193 31.3955 10.9146 31.5872 10.804L37.687 7.28228C37.8788 7.17153 38.115 7.17153 38.3068 7.28228L44.4067 10.804C44.5985 10.9147 44.7166 11.1193 44.7166 11.3407V13.4314C44.7166 16.7176 42.9634 19.7543 40.1173 21.3974L38.3067 22.4427C38.1149 22.5535 37.8787 22.5535 37.687 22.4427L35.8765 21.3973Z" fill="white"/>
<path d="M44.406 10.7966L42.4105 9.64453V11.1534C42.4105 15.7683 39.9484 19.0285 35.952 21.3358L35.8672 21.3848C35.87 21.3864 35.8729 21.3883 35.8758 21.3899L37.6863 22.4353C37.878 22.546 38.1144 22.546 38.3061 22.4353L40.1166 21.3899C42.9626 19.7469 44.7158 16.7103 44.7158 13.4239V11.3333C44.7158 11.1119 44.5977 10.9072 44.406 10.7966Z" fill="#F8F6F6"/>
<path d="M29.9816 36.4253C29.9795 36.4253 29.9774 36.4253 29.9752 36.4253C29.5706 36.4218 29.2456 36.0912 29.249 35.6867C29.2557 34.9199 29.2624 34.071 29.2686 33.2005H24.541C24.282 33.2005 24.0421 33.0636 23.9104 32.8405C23.7785 32.6173 23.7745 32.3412 23.8998 32.1143C24.2749 31.4344 27.5828 25.4495 28.2061 24.685C28.8387 23.9091 29.4996 24.0091 29.7543 24.0879C30.2967 24.2559 30.6831 24.7956 30.7388 25.463C30.7718 25.8588 30.7601 29.0155 30.7433 31.7357H31.4032C31.8078 31.7357 32.1357 32.0636 32.1357 32.4681C32.1357 32.8726 31.8078 33.2005 31.4032 33.2005H30.7335C30.7247 34.4365 30.7165 35.4075 30.7141 35.6992C30.7104 36.1015 30.3831 36.4252 29.9816 36.4253ZM25.7843 31.7357H29.2782C29.2953 28.9566 29.3038 26.2981 29.2839 25.687C28.8233 26.3348 27.1061 29.3604 25.7843 31.7357Z" fill="#FF3D3D"/>
<path d="M19.2169 36.5327C17.1452 36.5327 16.999 36.4839 16.9002 36.4509C16.6489 36.3672 16.4615 36.1785 16.3861 35.9334C16.2514 35.4957 16.429 35.2631 17.0903 34.3976C17.6474 33.6682 18.6844 32.3104 20.4213 29.8288C20.9642 29.0534 21.314 28.3527 21.4615 27.7455L21.5043 27.4109C21.4813 26.2931 20.5646 25.3907 19.441 25.3907C18.457 25.3907 17.6053 26.0899 17.4161 27.0533C17.3382 27.4503 16.9533 27.7089 16.5563 27.6309C16.1594 27.5529 15.9007 27.168 15.9787 26.771C16.3025 25.1224 17.7587 23.9258 19.441 23.9258C21.3867 23.9258 22.9696 25.5086 22.9696 27.454C22.9696 27.4851 22.9676 27.5161 22.9637 27.547L22.9096 27.9696C22.9065 27.994 22.9022 28.0182 22.8966 28.0421C22.7114 28.8407 22.2823 29.7245 21.6213 30.6688C20.0298 32.9424 19.0189 34.2838 18.424 35.0641C19.5802 35.07 21.3507 35.0575 22.6909 35.0406C23.0979 35.035 23.4275 35.3593 23.4325 35.7638C23.4377 36.1683 23.1139 36.5003 22.7095 36.5054C21.1642 36.525 20.0389 36.5327 19.2169 36.5327Z" fill="#FF3D3D"/>
<path d="M37.61 17.7446C37.4097 17.7446 37.2179 17.6626 37.0796 17.5173L34.6004 14.9142C34.3215 14.6212 34.3328 14.1576 34.6258 13.8786C34.9187 13.5997 35.3823 13.611 35.6614 13.9039L37.5914 15.9306L40.5334 12.6208C40.8021 12.3186 41.265 12.2912 41.5674 12.56C41.8698 12.8287 41.897 13.2916 41.6282 13.594L38.1574 17.4987C38.0213 17.6517 37.8274 17.7408 37.6226 17.7444C37.6184 17.7446 37.6142 17.7446 37.61 17.7446Z" fill="#05E39C"/>
</g>
<defs>
<clipPath id="clip0_5388_28360">
<rect width="50" height="50" fill="white" transform="translate(0 3)"/>
</clipPath>
</defs>
</svg>
