<svg width="33" height="32" viewBox="0 0 33 32" fill="none" xmlns="http://www.w3.org/2000/svg">
<g clip-path="url(#clip0_5388_28515)">
<path d="M9.4762 10.8292L19.6427 0.662749C20.2501 0.0552827 21.2351 0.0552808 21.8425 0.662749L32.0091 10.8292C32.6166 11.4367 32.6166 12.4216 32.0091 13.029L21.8426 23.1955C21.2351 23.803 20.2502 23.803 19.6427 23.1955L9.4762 13.029C8.8688 12.4216 8.86874 11.4366 9.4762 10.8292Z" fill="#FF6465" stroke="#3E677D" stroke-width="0.0724999"/>
<path d="M13.6281 13.3284C14.4021 13.3284 15.0296 12.7009 15.0296 11.9269C15.0296 11.1529 14.4021 10.5254 13.6281 10.5254C12.854 10.5254 12.2266 11.1529 12.2266 11.9269C12.2266 12.7009 12.854 13.3284 13.6281 13.3284Z" fill="white"/>
<path d="M20.7492 6.2112C21.5232 6.2112 22.1507 5.58373 22.1507 4.8097C22.1507 4.03567 21.5232 3.4082 20.7492 3.4082C19.9751 3.4082 19.3477 4.03567 19.3477 4.8097C19.3477 5.58373 19.9751 6.2112 20.7492 6.2112Z" fill="white"/>
<path d="M20.7492 20.4456C21.5232 20.4456 22.1507 19.8181 22.1507 19.0441C22.1507 18.2701 21.5232 17.6426 20.7492 17.6426C19.9751 17.6426 19.3477 18.2701 19.3477 19.0441C19.3477 19.8181 19.9751 20.4456 20.7492 20.4456Z" fill="white"/>
<path d="M29.2277 11.9269C29.2277 12.6809 28.6164 13.2921 27.8624 13.2921C27.1084 13.2921 26.4972 12.6809 26.4972 11.9269C26.4972 11.1729 27.1084 10.5616 27.8624 10.5616C28.6164 10.5616 29.2277 11.1729 29.2277 11.9269Z" fill="white" stroke="#3E677D" stroke-width="0.0724999"/>
<path opacity="0.1" d="M22.3203 20.5174L12.1537 10.351C11.6366 9.83382 11.5401 9.05529 11.8643 8.4406L9.4762 10.8287C8.86874 11.4361 8.8688 12.421 9.4762 13.0285M22.3203 20.5174L9.4762 13.0285M22.3203 20.5174C22.8375 21.0346 23.616 21.1311 24.2307 20.8069L21.8426 23.195C21.2351 23.8025 20.2502 23.8025 19.6427 23.195L9.4762 13.0285M22.3203 20.5174L9.4762 13.0285" fill="black" stroke="#3E677D" stroke-width="0.0724999"/>
<path d="M3.42384 12.9708H17.8014C18.6605 12.9708 19.3569 13.6673 19.3569 14.5263V28.9039C19.3569 29.7631 18.6604 30.4595 17.8014 30.4595H3.42384C2.56474 30.4595 1.86828 29.7631 1.86828 28.9039V14.5263C1.86828 13.6673 2.56474 12.9708 3.42384 12.9708Z" fill="white" stroke="#3E677D" stroke-width="0.0724999"/>
<path d="M11.9777 21.7169C11.9777 22.4709 11.3664 23.0822 10.6124 23.0822C9.85843 23.0822 9.24719 22.4709 9.24719 21.7169C9.24719 20.9629 9.85843 20.3517 10.6124 20.3517C11.3664 20.3517 11.9777 20.9629 11.9777 21.7169Z" fill="#6A6A6A" stroke="#3E677D" stroke-width="0.0724999"/>
<path d="M5.58118 18.0842C6.35521 18.0842 6.98268 17.4568 6.98268 16.6827C6.98268 15.9087 6.35521 15.2812 5.58118 15.2812C4.80716 15.2812 4.17969 15.9087 4.17969 16.6827C4.17969 17.4568 4.80716 18.0842 5.58118 18.0842Z" fill="#6A6A6A"/>
<path d="M15.6476 18.0842C16.4216 18.0842 17.0491 17.4568 17.0491 16.6827C17.0491 15.9087 16.4216 15.2812 15.6476 15.2812C14.8736 15.2812 14.2461 15.9087 14.2461 16.6827C14.2461 17.4568 14.8736 18.0842 15.6476 18.0842Z" fill="#6A6A6A"/>
<path d="M5.58118 28.1507C6.35521 28.1507 6.98268 27.5232 6.98268 26.7492C6.98268 25.9751 6.35521 25.3477 5.58118 25.3477C4.80716 25.3477 4.17969 25.9751 4.17969 26.7492C4.17969 27.5232 4.80716 28.1507 5.58118 28.1507Z" fill="#6A6A6A"/>
<path d="M15.6476 28.1507C16.4216 28.1507 17.0491 27.5232 17.0491 26.7492C17.0491 25.9751 16.4216 25.3477 15.6476 25.3477C14.8736 25.3477 14.2461 25.9751 14.2461 26.7492C14.2461 27.5232 14.8736 28.1507 15.6476 28.1507Z" fill="#6A6A6A"/>
<path opacity="0.1" d="M5.02099 31.7935C4.3571 31.5881 3.87481 30.9693 3.87481 30.238V15.8604C3.87481 15.129 4.35709 14.5102 5.02097 14.3048H2.09181L5.02099 31.7935ZM5.02099 31.7935H2.09181C1.23271 31.7935 0.53625 31.0971 0.53625 30.238V15.8604C0.53625 15.0013 1.2327 14.3049 2.09181 14.3048L5.02099 31.7935Z" fill="black" stroke="#3E677D" stroke-width="0.0724999"/>
</g>
<defs>
<clipPath id="clip0_5388_28515">
<rect width="32" height="32" fill="white" transform="translate(0.5)"/>
</clipPath>
</defs>
</svg>
