<svg width="33" height="32" viewBox="0 0 33 32" fill="none" xmlns="http://www.w3.org/2000/svg">
<g clip-path="url(#clip0_5388_28518)">
<path d="M6.13053 17.8193L3.69531 21.552L10.9553 28.812L14.6879 26.3767L6.13053 17.8193Z" fill="#C4C8F5"/>
<path d="M8.00002 6.95231L1.62891 13.3234L6.71719 14.9442L15.051 6.61035L8.00002 6.95231Z" fill="#3E677D"/>
<path d="M19.1794 30.8767L25.5506 24.5056L25.8926 17.4541L17.5586 25.788L19.1794 30.8767Z" fill="#A7ADF0"/>
<path d="M4.58087 24.2928L2.73047 22.4424L0.506203 24.6666L2.3566 26.517L4.58087 24.2928Z" fill="#FFB655"/>
<path d="M5.98944 30.1476L7.83984 31.998L10.0641 29.7738L8.21371 27.9234L5.98944 30.1476Z" fill="#FF9811"/>
<path d="M5.42354 25.1341L2.14453 28.4131L3.99489 30.2634L7.2739 26.9844L5.42354 25.1341Z" fill="#FFB655"/>
<path d="M31.7306 1.54057L31.5215 0.987305L26.9298 5.57898C28.2075 6.85664 28.207 8.92772 26.9298 10.2049C25.6522 11.4826 23.5816 11.4826 22.3039 10.2049L10.4102 22.0986L15.8318 27.5202L28.9643 14.3877C32.3236 11.0284 33.4093 5.98563 31.7306 1.54057Z" fill="#165C92"/>
<path d="M26.9267 10.2051C28.2039 8.92785 28.2044 6.85683 26.9267 5.5791L22.3008 10.2051C23.5784 11.4827 25.6491 11.4827 26.9267 10.2051Z" fill="#96C8EF"/>
<path d="M22.3036 10.2052C21.0264 8.92795 21.0259 6.85693 22.3036 5.5792C23.5808 4.302 25.6523 4.302 26.9295 5.5792L31.5212 0.987533L30.9684 0.778907C29.5969 0.260318 28.1549 -0.00195312 26.6839 -0.00195312C23.4494 -0.00195312 20.4084 1.2572 18.1213 3.5443L4.98828 16.6773L10.4099 22.0989L22.3036 10.2052Z" fill="#1E81CE"/>
<path d="M22.2979 5.57997C21.0203 6.85764 21.0207 8.92872 22.2979 10.2059L26.9239 5.57997C25.6467 4.30277 23.5751 4.30277 22.2979 5.57997Z" fill="#D1E7F8"/>
</g>
<defs>
<clipPath id="clip0_5388_28518">
<rect width="32" height="32" fill="white" transform="translate(0.5)"/>
</clipPath>
</defs>
</svg>
