<svg width="57" height="56" viewBox="0 0 57 56" fill="none" xmlns="http://www.w3.org/2000/svg">
<path d="M35.9375 23.4922V37.375C35.9375 38.8254 35.3613 40.2164 34.3357 41.242C33.3102 42.2676 31.9192 42.8438 30.4688 42.8438H18.75C17.2996 42.8438 15.9086 42.2676 14.883 41.242C13.8574 40.2164 13.2812 38.8254 13.2812 37.375V29.5625H29.6875V23.3125C29.6866 22.5088 29.9954 21.7357 30.5497 21.1537C31.104 20.5717 31.8613 20.2257 32.6641 20.1875C33.0972 20.1854 33.5264 20.2697 33.9265 20.4354C34.3267 20.6011 34.6898 20.845 34.9946 21.1527C35.2994 21.4604 35.5397 21.8258 35.7017 22.2275C35.8636 22.6292 35.9437 23.0592 35.9375 23.4922Z" fill="#FFE27A"/>
<path d="M35.9375 23.4922V37.375C35.9375 38.8254 35.3613 40.2164 34.3357 41.242C33.3102 42.2676 31.9192 42.8438 30.4688 42.8438H18.75C17.3051 42.8542 15.9148 42.2925 14.8828 41.2812C14.6215 41.0179 14.3861 40.7301 14.1797 40.4219C15.0757 40.9985 16.1221 41.2975 17.1875 41.2812H31.0625C31.941 41.2812 32.7836 40.9323 33.4048 40.311C34.026 39.6898 34.375 38.8473 34.375 37.9687V21.0625C34.3724 20.9095 34.3514 20.7574 34.3125 20.6094C34.8071 20.911 35.2161 21.3344 35.5006 21.8391C35.7851 22.3437 35.9355 22.9129 35.9375 23.4922Z" fill="#F6B545"/>
<path d="M29.6094 29.5625C28.9557 29.8917 28.3595 30.3244 27.8438 30.8437C27.1886 31.4945 26.669 32.2687 26.315 33.1216C25.9609 33.9745 25.7795 34.8891 25.7813 35.8125C25.7813 36.0197 25.699 36.2184 25.5525 36.3649C25.406 36.5114 25.2072 36.5938 25 36.5938C24.7928 36.5938 24.5941 36.5114 24.4476 36.3649C24.3011 36.2184 24.2188 36.0197 24.2188 35.8125C24.215 34.6833 24.4354 33.5646 24.8672 32.5212C25.2991 31.4779 25.9337 30.5306 26.7344 29.7344L26.9141 29.5625H29.6094Z" fill="#F6B545"/>
<path d="M46.0938 10.0312V12.375C46.0938 11.5462 45.7645 10.7513 45.1785 10.1653C44.5924 9.57924 43.7976 9.25 42.9688 9.25H7.03125C6.20245 9.25 5.40759 9.57924 4.82154 10.1653C4.23549 10.7513 3.90625 11.5462 3.90625 12.375V10.0312C3.90625 9.20245 4.23549 8.40759 4.82154 7.82154C5.40759 7.23549 6.20245 6.90625 7.03125 6.90625H42.9688C43.7976 6.90625 44.5924 7.23549 45.1785 7.82154C45.7645 8.40759 46.0938 9.20245 46.0938 10.0312Z" fill="#6F707E"/>
<path d="M46.0938 12.375V16.2812C46.0938 17.1101 45.7645 17.9049 45.1785 18.491C44.5924 19.077 43.7976 19.4062 42.9688 19.4062H42.1875V13.1562H7.8125V19.4062H7.03125C6.20245 19.4062 5.40759 19.077 4.82154 18.491C4.23549 17.9049 3.90625 17.1101 3.90625 16.2812V12.375C3.90625 11.5462 4.23549 10.7513 4.82154 10.1653C5.40759 9.57924 6.20245 9.25 7.03125 9.25H42.9688C43.7976 9.25 44.5924 9.57924 45.1785 10.1653C45.7645 10.7513 46.0938 11.5462 46.0938 12.375Z" fill="#595A66"/>
<path d="M34.375 45.1875V48.3125C34.375 48.9341 34.1281 49.5303 33.6885 49.9698C33.249 50.4094 32.6529 50.6563 32.0312 50.6563H17.1875C16.5659 50.6563 15.9698 50.4094 15.5302 49.9698C15.0907 49.5303 14.8438 48.9341 14.8438 48.3125V45.1875C14.8438 44.5659 15.0907 43.9698 15.5302 43.5303C15.9698 43.0907 16.5659 42.8438 17.1875 42.8438H32.0312C32.2981 42.8421 32.563 42.8898 32.8125 42.9844C33.2684 43.1456 33.6633 43.4438 33.943 43.8383C34.2228 44.2327 34.3736 44.704 34.375 45.1875Z" fill="#4C9CD6"/>
<path d="M32.8125 42.9844V45.9688C32.8125 46.5904 32.5656 47.1865 32.126 47.6261C31.6865 48.0656 31.0904 48.3125 30.4688 48.3125H15.625C15.3581 48.3142 15.0933 48.2666 14.8438 48.1719V45.1875C14.8438 44.5659 15.0907 43.9698 15.5302 43.5303C15.9698 43.0907 16.5659 42.8438 17.1875 42.8438H32.0312C32.2981 42.8421 32.563 42.8898 32.8125 42.9844Z" fill="#70B7E5"/>
<path d="M29.6875 26.4375V29.5625H10.9375C10.1087 29.5625 9.31384 29.2333 8.72779 28.6472C8.14174 28.0612 7.8125 27.2663 7.8125 26.4375V13.1562H13.9609C13.7878 13.8267 13.397 14.4206 12.8498 14.8448C12.3025 15.269 11.6299 15.4995 10.9375 15.5V23.3125C11.7663 23.3125 12.5612 23.6417 13.1472 24.2278C13.7333 24.8138 14.0625 25.6087 14.0625 26.4375H29.6875Z" fill="#0E9347"/>
<path d="M39.0625 15.5V23.3125C38.2337 23.3125 37.4388 23.6417 36.8528 24.2278C36.2667 24.8138 35.9375 25.6087 35.9375 26.4375V23.4922C35.9437 23.0591 35.8636 22.6292 35.7017 22.2274C35.5397 21.8257 35.2994 21.4603 34.9946 21.1526C34.6898 20.8449 34.3267 20.6011 33.9265 20.4354C33.5264 20.2696 33.0972 20.1854 32.6641 20.1875C31.8613 20.2257 31.104 20.5717 30.5497 21.1537C29.9954 21.7356 29.6866 22.5088 29.6875 23.3125V26.4375H14.0625C14.0625 25.6087 13.7333 24.8138 13.1472 24.2278C12.5612 23.6417 11.7663 23.3125 10.9375 23.3125V15.5C11.6299 15.4995 12.3025 15.269 12.8498 14.8448C13.397 14.4206 13.7878 13.8267 13.9609 13.1562H36.0391C36.2122 13.8267 36.603 14.4206 37.1502 14.8448C37.6975 15.269 38.3701 15.4995 39.0625 15.5Z" fill="#3BB54A"/>
<path d="M42.1875 13.1562V26.4375C42.1863 27.1211 41.961 27.7854 41.5462 28.3286C41.1313 28.8719 40.5497 29.2642 39.8906 29.4453C39.6217 29.5241 39.3427 29.5636 39.0625 29.5625H35.9375V26.4375C35.9375 25.6087 36.2667 24.8138 36.8528 24.2278C37.4388 23.6417 38.2337 23.3125 39.0625 23.3125V15.5C38.3701 15.4995 37.6975 15.269 37.1502 14.8448C36.603 14.4206 36.2122 13.8267 36.0391 13.1562H42.1875Z" fill="#0E9347"/>
<path d="M25 23.3125C27.1574 23.3125 28.9062 21.0389 28.9062 18.2344C28.9062 15.4298 27.1574 13.1562 25 13.1562C22.8426 13.1562 21.0938 15.4298 21.0938 18.2344C21.0938 21.0389 22.8426 23.3125 25 23.3125Z" fill="#89C763"/>
<path d="M42.9688 13.9375H7.03125C6.82405 13.9375 6.62534 13.8552 6.47882 13.7087C6.33231 13.5622 6.25 13.3635 6.25 13.1562C6.25 12.949 6.33231 12.7503 6.47882 12.6038C6.62534 12.4573 6.82405 12.375 7.03125 12.375H42.9688C43.1759 12.375 43.3747 12.4573 43.5212 12.6038C43.6677 12.7503 43.75 12.949 43.75 13.1562C43.75 13.3635 43.6677 13.5622 43.5212 13.7087C43.3747 13.8552 43.1759 13.9375 42.9688 13.9375Z" fill="#494A52"/>
</svg>
