<svg width="32" height="32" viewBox="0 0 32 32" fill="none" xmlns="http://www.w3.org/2000/svg">
<g clip-path="url(#clip0_5388_28531)">
<path d="M16.5358 27.2991V31.4632C16.5358 31.7598 16.2957 32.0006 15.9984 32.0006C15.7017 32.0006 15.4609 31.7598 15.4609 31.4632V27.2991C15.4609 27.0025 15.7017 26.7617 15.9984 26.7617C16.2957 26.7617 16.5358 27.0025 16.5358 27.2991Z" fill="#7C6655"/>
<path d="M21.3158 5.26896C21.3158 5.4739 21.3036 5.67669 21.2807 5.8759H15.9981H10.7148C10.6919 5.67669 10.6797 5.4739 10.6797 5.26896C10.6797 2.35896 13.0609 0 15.9981 0C18.9346 0 21.3158 2.35896 21.3158 5.26896Z" fill="#7C6655"/>
<path d="M16.5358 27.2991V28.2443C16.3567 28.2594 16.1775 28.2665 15.9984 28.2665C15.8192 28.2665 15.6401 28.2594 15.4609 28.2443V27.2991C15.4609 27.0025 15.7017 26.7617 15.9984 26.7617C16.2957 26.7617 16.5358 27.0025 16.5358 27.2991Z" fill="#665040"/>
<path d="M18.919 24.1357V26.6273C17.996 27.0751 16.995 27.2987 15.9946 27.2987C14.9943 27.2987 13.9933 27.0751 13.0703 26.6273V24.1357C14.9169 25.0322 17.0724 25.0322 18.919 24.1357Z" fill="#E5DCC6"/>
<path d="M18.919 13.7199V24.1353C17.0724 25.0318 14.9169 25.0318 13.0703 24.1353V13.7199L13.1026 13.5859L15.9954 14.2889L18.8867 13.5859L18.919 13.7199Z" fill="#E77200"/>
<path d="M15.9971 5.87598V14.2893L13.1042 13.5863L9.91406 12.811V5.87598H10.7138H15.9971Z" fill="#51B7A6"/>
<path d="M22.0784 5.87598V12.811L18.8875 13.5863L15.9961 14.2893V5.87598H21.2787H22.0784Z" fill="#88C9B3"/>
<path d="M18.919 13.7199V15.2978L18.8867 15.3057L15.9954 16.0087L13.1026 15.3057L13.0703 15.2978V13.7199L13.1026 13.5859L15.9954 14.2889L18.8867 13.5859L18.919 13.7199Z" fill="#C65C05"/>
</g>
<defs>
<clipPath id="clip0_5388_28531">
<rect width="32" height="32" fill="white"/>
</clipPath>
</defs>
</svg>
