<svg width="32" height="32" viewBox="0 0 32 32" fill="none" xmlns="http://www.w3.org/2000/svg">
<g clip-path="url(#clip0_5388_28524)">
<path d="M23.3486 1.19288L23.3485 1.19238C19.9351 1.19238 17.7061 1.19238 14.2584 1.19288H9.04069H8.61831H0C0 5.01695 2.12869 8.45551 5.48912 9.77282L9.01431 9.8117C9.28925 10.8303 9.6835 11.7871 10.3219 12.7439C10.8792 13.4398 11.3669 14.066 12.1331 14.5531C12.6207 14.8314 13.1083 15.1098 13.6656 15.3186C13.7536 15.3405 13.8415 15.3625 13.9294 15.3844V17.4799H15.0388V26.9681L15.0387 27.0107C13.3397 27.44 12.0824 28.977 12.0824 30.8077H19.9239C19.9239 28.9972 18.6942 27.4739 17.0236 27.0252L17.0236 26.968V17.4798H18.1383V15.3663C18.8488 15.1698 19.5112 14.8653 20.144 14.4138C20.8406 13.8571 21.3979 13.2309 21.8855 12.4654C22.1642 12.0479 22.3731 11.5608 22.5821 11.1433C22.754 10.6889 22.9002 10.2256 23.0245 9.7557L26.5107 9.77276C29.8713 8.45551 32 5.01695 32 1.19288H23.3486ZM8.65012 7.59438C8.65012 7.64888 8.65012 7.69263 8.65012 7.73407H5.64656C3.88844 6.67782 2.54813 4.84613 2.25481 3.01457H8.63212L8.65012 7.59438ZM23.4296 3.01451H29.7452C29.4518 4.84613 28.1114 6.67776 26.3534 7.73407H23.4225L23.4296 3.01451Z" fill="#FFC614"/>
<path d="M8.63259 7.73145H5.71484V23.5725L7.07022 22.288L8.60297 23.6062L8.63259 7.73145Z" fill="#0088FF"/>
<path d="M23.3525 1.19386L23.3524 1.19336C20.5479 1.19336 18.5423 1.19336 16.0039 1.19361V30.8086H19.9278C19.9278 28.9981 18.6982 27.4749 17.0276 27.0261L17.0275 26.9689V17.4808H18.1422V15.3673C18.8527 15.1708 19.5152 14.8664 20.148 14.4149C20.8446 13.8582 21.4019 13.2319 21.8895 12.4664C22.1682 12.049 22.377 11.5619 22.5861 11.1443C22.758 10.6899 22.9042 10.2267 23.0285 9.75673L26.5147 9.7738C29.8752 8.45648 32.0039 5.01792 32.0039 1.19386H23.3525ZM23.4335 3.01548H29.7491C29.4557 4.84711 28.1153 6.67873 26.3573 7.73505H23.4264L23.4335 3.01548Z" fill="#ECB300"/>
<path d="M17.0238 17.4795H15.0391V18.0867H17.0238V17.4795Z" fill="#ECB300"/>
<path d="M26.3437 7.73145H23.4258V23.5725L24.7813 22.288L26.3142 23.6062L26.3437 7.73145Z" fill="#005FD3"/>
</g>
<defs>
<clipPath id="clip0_5388_28524">
<rect width="32" height="32" fill="white"/>
</clipPath>
</defs>
</svg>
