<svg width="57" height="56" viewBox="0 0 57 56" fill="none" xmlns="http://www.w3.org/2000/svg">
<g clip-path="url(#clip0_5388_28236)">
<path d="M33.0315 3.19531C29.0033 3.20316 25.0967 4.57555 21.9487 7.08865C18.8007 9.60176 16.597 13.1073 15.6971 17.0336L2.96895 29.7625C2.40665 30.3247 1.9606 30.9921 1.65627 31.7267C1.35195 32.4613 1.19531 33.2486 1.19531 34.0438C1.19531 34.8389 1.35195 35.6262 1.65627 36.3608C1.9606 37.0954 2.40665 37.7628 2.96895 38.325L15.6752 51.0312C16.2374 51.5936 16.9048 52.0396 17.6394 52.3439C18.374 52.6483 19.1613 52.8049 19.9565 52.8049C20.7516 52.8049 21.5389 52.6483 22.2735 52.3439C23.0081 52.0396 23.6755 51.5936 24.2377 51.0312L36.9666 38.3031C41.2298 37.3358 44.987 34.8313 47.5199 31.2684C50.0529 27.7054 51.184 23.334 50.6971 18.9897C50.2102 14.6453 48.1393 10.6328 44.8804 7.71907C41.6214 4.80534 37.403 3.19481 33.0315 3.19531Z" fill="#D2A078"/>
<path d="M36.015 35.7088C35.7514 35.7623 35.5094 35.8922 35.319 36.0822L22.3041 49.0978C21.6812 49.7203 20.8367 50.0699 19.9561 50.0699C19.0755 50.0699 18.2309 49.7203 17.608 49.0978L4.90177 36.3916C4.27933 35.7687 3.92969 34.9241 3.92969 34.0435C3.92969 33.1629 4.27933 32.3184 4.90177 31.6955L17.9174 18.6806C18.1074 18.4902 18.2372 18.2482 18.2908 17.9845C18.8304 15.3196 20.0823 12.8507 21.9135 10.8407C23.7446 8.83068 26.0864 7.35471 28.6898 6.56985C31.2931 5.78498 34.0605 5.72059 36.6975 6.38351C39.3345 7.04643 41.7424 8.41187 43.6651 10.3345C45.5877 12.2572 46.9532 14.6651 47.6161 17.3021C48.279 19.9391 48.2146 22.7065 47.4297 25.3098C46.6449 27.9132 45.1689 30.255 43.1589 32.0861C41.1489 33.9173 38.68 35.1692 36.015 35.7088Z" fill="#BEF082"/>
<path d="M25.1109 33.4023L20.2773 38.2367L24.7883 42.7484L28.6555 38.8813C28.7825 38.7543 28.8833 38.6036 28.9521 38.4377C29.0209 38.2719 29.0563 38.094 29.0563 37.9145C29.0563 37.7349 29.0209 37.5571 28.9521 37.3912C28.8833 37.2253 28.7825 37.0746 28.6555 36.9477L25.1109 33.4023Z" fill="#223945"/>
<path d="M15.7617 33.7188L20.5947 28.8857L25.1057 33.3967L20.2727 38.2297L15.7617 33.7188Z" fill="#FF3D3D"/>
<path d="M15.125 25.3422L11.2578 29.2094L15.7687 33.7203L20.6023 28.8868L17.0586 25.3422C16.9317 25.2152 16.781 25.1144 16.6151 25.0456C16.4492 24.9768 16.2714 24.9414 16.0918 24.9414C15.9122 24.9414 15.7344 24.9768 15.5685 25.0456C15.4026 25.1144 15.2519 25.2152 15.125 25.3422Z" fill="#223945"/>
<path d="M20.2797 38.2344L15.4453 43.068L18.9906 46.6125C19.1175 46.7396 19.2682 46.8404 19.4341 46.9091C19.6 46.9779 19.7778 47.0133 19.9574 47.0133C20.137 47.0133 20.3148 46.9779 20.4807 46.9091C20.6466 46.8404 20.7973 46.7396 20.9242 46.6125L24.7906 42.7461L20.2797 38.2344Z" fill="#FF3D3D"/>
<path d="M10.9297 38.5547L15.7627 33.7217L20.2737 38.2327L15.4407 43.0657L10.9297 38.5547Z" fill="#223945"/>
<path d="M11.2555 29.207L7.38909 33.0742C7.26203 33.2011 7.16123 33.3518 7.09246 33.5177C7.02368 33.6836 6.98828 33.8614 6.98828 34.041C6.98828 34.2206 7.02368 34.3984 7.09246 34.5643C7.16123 34.7302 7.26203 34.8809 7.38909 35.0078L10.9336 38.5523L15.7664 33.718L11.2555 29.207Z" fill="#FF3D3D"/>
<path d="M33.0312 32.4922C39.3955 32.4922 44.5547 27.333 44.5547 20.9688C44.5547 14.6045 39.3955 9.44531 33.0312 9.44531C26.667 9.44531 21.5078 14.6045 21.5078 20.9688C21.5078 27.333 26.667 32.4922 33.0312 32.4922Z" fill="#F5FCFC"/>
<path d="M40.5188 16.3883L36.4562 18.0695C36.2955 17.8799 36.1194 17.7037 35.9297 17.543L37.6109 13.4805C38.7955 14.2075 39.7918 15.2037 40.5188 16.3883Z" fill="#6E7E8D"/>
<path d="M33.0312 22.7266C34.0021 22.7266 34.7891 21.9396 34.7891 20.9688C34.7891 19.9979 34.0021 19.2109 33.0312 19.2109C32.0604 19.2109 31.2734 19.9979 31.2734 20.9688C31.2734 21.9396 32.0604 22.7266 33.0312 22.7266Z" fill="#96E1FF"/>
<path d="M33.0328 12.1797C33.7258 12.1823 34.4161 12.2673 35.0891 12.4328L33.4063 16.4953C33.2828 16.4852 33.1586 16.4766 33.0328 16.4766C32.907 16.4766 32.7828 16.4852 32.6594 16.4953L30.9766 12.4328C31.6495 12.2673 32.3398 12.1823 33.0328 12.1797Z" fill="#FF6871"/>
<path d="M28.4508 13.4805L30.132 17.543C29.9424 17.7037 29.7662 17.8799 29.6055 18.0695L25.543 16.3883C26.27 15.2037 27.2662 14.2075 28.4508 13.4805Z" fill="#6E7E8D"/>
<path d="M24.4953 23.0227C24.1578 21.6726 24.1578 20.2602 24.4953 18.9102L28.5578 20.593C28.5477 20.7164 28.5391 20.8406 28.5391 20.9664C28.5391 21.0922 28.5477 21.2164 28.5578 21.3398L24.4953 23.0227Z" fill="#FF6871"/>
<path d="M25.543 25.5484L29.6055 23.8672C29.7662 24.0569 29.9424 24.233 30.132 24.3937L28.4508 28.4562C27.2662 27.7292 26.27 26.733 25.543 25.5484Z" fill="#6E7E8D"/>
<path d="M33.0328 29.757C32.3398 29.7544 31.6495 29.6694 30.9766 29.5039L32.6594 25.4414C32.7828 25.4516 32.907 25.4602 33.0328 25.4602C33.1586 25.4602 33.2828 25.4516 33.4063 25.4414L35.0891 29.5039C34.4161 29.6694 33.7258 29.7544 33.0328 29.757Z" fill="#FF6871"/>
<path d="M37.6109 28.4563L35.9297 24.3937C36.1194 24.233 36.2955 24.0569 36.4562 23.8672L40.5188 25.5484C39.7918 26.733 38.7955 27.7293 37.6109 28.4563Z" fill="#BEF082"/>
<path d="M37.5039 21.3398C37.5141 21.2164 37.5227 21.0922 37.5227 20.9664C37.5227 20.8406 37.5141 20.7164 37.5039 20.593L41.5664 18.9102C41.9039 20.2602 41.9039 21.6726 41.5664 23.0227L37.5039 21.3398Z" fill="#FF6871"/>
</g>
<defs>
<clipPath id="clip0_5388_28236">
<rect width="50" height="50" fill="white" transform="translate(1 3)"/>
</clipPath>
</defs>
</svg>
