<svg width="57" height="56" viewBox="0 0 57 56" fill="none" xmlns="http://www.w3.org/2000/svg">
<path d="M37.6206 48.625C36.9013 49.2999 35.9351 49.7145 34.8732 49.7145H17.1307C16.0688 49.7145 15.1025 49.2998 14.3833 48.625C14.1136 48.8583 13.9414 49.2019 13.9414 49.5843C13.9414 50.2825 14.5127 50.8538 15.2109 50.8538H36.793C37.4912 50.8538 38.0625 50.2825 38.0625 49.5843C38.0625 49.2018 37.8904 48.8582 37.6206 48.625Z" fill="#FB2B3A"/>
<path d="M13.1113 45.6958V44.702H8.42383C7.93916 44.702 7.54492 44.3078 7.54492 43.8231V43.7656C7.2209 43.9963 7.00781 44.3739 7.00781 44.7997C7.00781 45.4979 7.5791 46.0692 8.27734 46.0692H13.1293C13.1179 45.9462 13.1113 45.8218 13.1113 45.6958Z" fill="#FB2B3A"/>
<path d="M13.1094 34.5938H8.42188C7.88252 34.5938 7.44531 35.031 7.44531 35.5703V37.0201C7.44531 37.5595 7.88252 37.9967 8.42188 37.9967C7.88252 37.9967 7.44531 38.4339 7.44531 38.9732V40.423C7.44531 40.9624 7.88252 41.3996 8.42188 41.3996C7.88252 41.3996 7.44531 41.8368 7.44531 42.3762V43.8259C7.44531 44.3652 7.88252 44.8024 8.42188 44.8024H13.1094V34.5938Z" fill="#FEDF30"/>
<path d="M44.4594 43.7656V43.8231C44.4594 44.3078 44.0651 44.702 43.5805 44.702H38.893V45.6958C38.893 45.8218 38.8864 45.9462 38.875 46.0692H43.727C44.4252 46.0692 44.9965 45.4979 44.9965 44.7997C44.9965 44.3739 44.7834 43.9963 44.4594 43.7656Z" fill="#FB2B3A"/>
<path d="M44.5547 26.8092V25.3594C44.5547 24.82 44.1175 24.3828 43.5781 24.3828H38.8906V44.8002H43.5781C44.1175 44.8002 44.5547 44.363 44.5547 43.8236V42.3738C44.5547 41.8345 44.1175 41.3973 43.5781 41.3973C44.1175 41.3973 44.5547 40.9601 44.5547 40.4207V38.9709C44.5547 38.4315 44.1175 37.9943 43.5781 37.9943C44.1175 37.9943 44.5547 37.5571 44.5547 37.0178V35.568C44.5547 35.0286 44.1175 34.5914 43.5781 34.5914C44.1175 34.5914 44.5547 34.1542 44.5547 33.6148V32.165C44.5547 31.6257 44.1175 31.1885 43.5781 31.1885C44.1175 31.1885 44.5547 30.7513 44.5547 30.2119V28.7621C44.5547 28.2228 44.1175 27.7855 43.5781 27.7855C44.1175 27.7857 44.5547 27.3484 44.5547 26.8092Z" fill="#FEDF30"/>
<path d="M43.5781 37.9844H38.8906V41.3873H43.5781C44.1175 41.3873 44.5547 40.9501 44.5547 40.4107V38.9609C44.5547 38.4216 44.1175 37.9844 43.5781 37.9844Z" fill="#FED402"/>
<path d="M43.5781 31.1797H38.8906V34.5826H43.5781C44.1175 34.5826 44.5547 34.1454 44.5547 33.6061V32.1562C44.5547 31.6169 44.1175 31.1797 43.5781 31.1797Z" fill="#FED402"/>
<path d="M43.5781 24.375H38.8906V27.7779H43.5781C44.1175 27.7779 44.5547 27.3407 44.5547 26.8014V25.3516C44.5547 24.8122 44.1175 24.375 43.5781 24.375Z" fill="#FED402"/>
<path d="M43.5781 24.375H40.6484C41.1878 24.375 41.625 24.8122 41.625 25.3516V26.8014C41.625 27.3407 41.1878 27.7779 40.6484 27.7779H43.5781C44.1175 27.7779 44.5547 27.3407 44.5547 26.8014V25.3516C44.5547 24.8122 44.1175 24.375 43.5781 24.375Z" fill="#FAC600"/>
<path d="M43.5781 27.7812H40.6484C41.1878 27.7812 41.625 28.2185 41.625 28.7578V30.2076C41.625 30.747 41.1878 31.1842 40.6484 31.1842H43.5781C44.1175 31.1842 44.5547 30.747 44.5547 30.2076V28.7578C44.5547 28.2185 44.1175 27.7812 43.5781 27.7812Z" fill="#FED402"/>
<path d="M43.5781 34.5859H40.6484C41.1878 34.5859 41.625 35.0231 41.625 35.5625V37.0123C41.625 37.5517 41.1878 37.9889 40.6484 37.9889H43.5781C44.1175 37.9889 44.5547 37.5517 44.5547 37.0123V35.5625C44.5547 35.0231 44.1175 34.5859 43.5781 34.5859Z" fill="#FED402"/>
<path d="M43.5781 41.3906H40.6484C41.1878 41.3906 41.625 41.8278 41.625 42.3672V43.817C41.625 44.3563 41.1878 44.7936 40.6484 44.7936H43.5781C44.1175 44.7936 44.5547 44.3563 44.5547 43.817V42.3672C44.5547 41.8278 44.1175 41.3906 43.5781 41.3906Z" fill="#FED402"/>
<path d="M43.5781 31.1797H40.6484C41.1878 31.1797 41.625 31.6169 41.625 32.1562V33.6061C41.625 34.1454 41.1878 34.5826 40.6484 34.5826H43.5781C44.1175 34.5826 44.5547 34.1454 44.5547 33.6061V32.1562C44.5547 31.6169 44.1175 31.1797 43.5781 31.1797Z" fill="#FAC600"/>
<path d="M43.5781 37.9844H40.6484C41.1878 37.9844 41.625 38.4216 41.625 38.9609V40.4107C41.625 40.9501 41.1878 41.3873 40.6484 41.3873H43.5781C44.1175 41.3873 44.5547 40.9501 44.5547 40.4107V38.9609C44.5547 38.4216 44.1175 37.9844 43.5781 37.9844Z" fill="#FAC600"/>
<path d="M13.1094 37.9883H8.42188C7.88252 37.9883 7.44531 38.4255 7.44531 38.9648V40.4146C7.44531 40.954 7.88252 41.3912 8.42188 41.3912H13.1094V37.9883Z" fill="#FED402"/>
<path d="M17.1326 49.8099C14.8625 49.8099 13.0156 47.963 13.0156 45.6929V9.26543C13.0156 6.99531 14.8625 5.14844 17.1326 5.14844H34.8752C37.1453 5.14844 38.9922 6.99531 38.9922 9.26543V45.6929C38.9922 47.963 37.1453 49.8099 34.8752 49.8099H17.1326Z" fill="#554E56"/>
<path d="M17.1312 48.014C15.8526 48.014 14.8125 46.9738 14.8125 45.6953V9.26787C14.8125 7.98945 15.8525 6.94922 17.1312 6.94922H34.8737C36.1522 6.94922 37.1924 7.98936 37.1924 9.26787V45.6953C37.1924 46.9737 36.1523 48.014 34.8737 48.014H17.1312Z" fill="#0ED290"/>
<path d="M28.3153 16.2956L26.4262 12.7688C26.2455 12.4312 25.7615 12.4312 25.5807 12.7688L23.6917 16.2956L21.114 14.9677C20.7443 14.7772 20.324 15.1155 20.431 15.5174L21.5394 19.68C21.5954 19.89 21.7855 20.0361 22.0028 20.0361H30.0042C30.2214 20.0361 30.4117 19.8899 30.4675 19.68L31.5759 15.5174C31.683 15.1155 31.2627 14.7771 30.8929 14.9677L28.3153 16.2956Z" fill="#FED402"/>
<path d="M30.8931 14.9647L29.5042 15.6803L28.4399 19.6771C28.384 19.8872 28.1938 20.0333 27.9766 20.0333H30.0043C30.2216 20.0333 30.4118 19.8871 30.4677 19.6771L31.5761 15.5145C31.6831 15.1126 31.2628 14.7742 30.8931 14.9647Z" fill="#FAC600"/>
<path d="M29.3761 10.1939H22.6321C22.22 10.1939 21.8828 9.85674 21.8828 9.44463C21.8828 9.03252 22.22 8.69531 22.6321 8.69531H29.3761C29.7882 8.69531 30.1254 9.03252 30.1254 9.44463C30.1254 9.85684 29.7882 10.1939 29.3761 10.1939Z" fill="#554E56"/>
<path d="M27.7519 22C23.9433 22 20.796 24.8239 20.2852 28.4919H25.5408C26.0162 28.4919 26.403 28.8787 26.403 29.3542V36.9592C26.8409 37.0383 27.2911 37.0818 27.7519 37.0818C31.9166 37.0818 35.2928 33.7057 35.2928 29.5409C35.2928 25.3762 31.9166 22 27.7519 22Z" fill="#FD4755"/>
<path d="M30.7128 25.5053L31.4719 24.7462C31.7077 24.5104 31.6618 24.1202 31.3822 23.9383C30.6984 23.4935 29.9434 23.1805 29.1464 23.0118C28.8202 22.9427 28.5117 23.1863 28.5117 23.5198V24.5907C29.3263 24.7152 30.0765 25.0372 30.7128 25.5053Z" fill="#FD8087"/>
<path d="M22.8549 28.491C23.0055 27.7879 23.304 27.1393 23.7162 26.5788L22.9572 25.8198C22.7213 25.5839 22.3311 25.6298 22.1493 25.9094C21.7043 26.5932 21.3914 27.3483 21.2227 28.1452C21.1966 28.2683 21.2152 28.3887 21.266 28.491H22.8549Z" fill="#FD8087"/>
<path d="M33.7747 30.3008H32.7038C32.5793 31.1153 32.2571 31.8654 31.7891 32.5019L32.548 33.2608C32.7839 33.4967 33.1741 33.4508 33.356 33.1712C33.8009 32.4874 34.1138 31.7322 34.2826 30.9354C34.3518 30.6093 34.1082 30.3008 33.7747 30.3008Z" fill="#FD8087"/>
<path d="M30.7128 33.5781C30.0764 34.0463 29.3263 34.3684 28.5117 34.4929V35.5638C28.5117 35.8973 28.8201 36.1408 29.1464 36.0717C29.9433 35.9029 30.6984 35.5899 31.3822 35.1451C31.6617 34.9633 31.7076 34.573 31.4719 34.3372L30.7128 33.5781Z" fill="#FD8087"/>
<path d="M24.7898 25.5054C25.4261 25.0372 26.1762 24.7152 26.9908 24.5907V23.5198C26.9908 23.1863 26.6824 22.9427 26.3561 23.0118C25.5592 23.1805 24.8041 23.4934 24.1203 23.9383C23.8408 24.1202 23.7949 24.5105 24.0306 24.7462L24.7898 25.5054Z" fill="#FD8087"/>
<path d="M34.2827 28.1452C34.114 27.3483 33.801 26.5932 33.3561 25.9093C33.1742 25.6298 32.7839 25.5839 32.5481 25.8197L31.7891 26.5788C32.2572 27.2152 32.5793 27.9653 32.7038 28.7798H33.7747C34.1082 28.7798 34.3518 28.4714 34.2827 28.1452Z" fill="#FD8087"/>
<path d="M26.4023 34.3672V36.0804C26.7109 36.1185 26.9909 35.883 26.9909 35.5653V34.4944C26.7905 34.4639 26.5942 34.421 26.4023 34.3672Z" fill="#FD8087"/>
<path d="M27.7496 25.0898C25.6553 25.0898 23.8949 26.5435 23.4219 28.4944H25.5386C26.014 28.4944 26.4008 28.8813 26.4008 29.3567V33.7879C26.8265 33.9235 27.2795 33.9973 27.7496 33.9973C30.2054 33.9973 32.2033 31.9993 32.2033 29.5436C32.2033 27.0878 30.2054 25.0898 27.7496 25.0898Z" fill="white"/>
<path d="M27.6719 33.9951C27.6983 33.9956 27.7244 33.9972 27.751 33.9972C30.2067 33.9972 32.2047 31.9992 32.2047 29.5435C32.2047 27.0878 30.2067 25.0898 27.751 25.0898C27.7245 25.0898 27.6983 25.0914 27.672 25.0919C29.3892 25.8399 30.5901 27.551 30.5901 29.5436C30.5901 31.5361 29.3891 33.2472 27.6719 33.9951Z" fill="#F9F7F8"/>
<path d="M27.7516 24.4336C25.2953 24.4336 23.2391 26.1769 22.7539 28.491H23.524C23.9948 26.5942 25.7113 25.184 27.7516 25.184C30.1535 25.184 32.1076 27.1381 32.1076 29.54C32.1076 31.942 30.1535 33.8961 27.7516 33.8961C27.2809 33.8961 26.8277 33.8201 26.4027 33.6813V34.4645C26.8327 34.5823 27.2847 34.6466 27.7516 34.6466C30.5673 34.6466 32.8581 32.3559 32.8581 29.54C32.8581 26.7242 30.5673 24.4336 27.7516 24.4336Z" fill="#FB2B3A"/>
<path d="M30.447 28.7256L27.9684 26.1504C27.8505 26.028 27.6544 26.028 27.5364 26.1504L25.2812 28.4934H25.5413C26.0167 28.4934 26.4035 28.8802 26.4035 29.3557V31.6338C26.7183 31.597 27.0132 31.4655 27.2546 31.2633L26.7071 32.2116C26.5918 32.4114 26.7359 32.6612 26.9667 32.6612H28.538C28.7687 32.6612 28.9129 32.4114 28.7976 32.2116L28.2501 31.2633C28.6817 31.6249 29.2845 31.7608 29.8655 31.5326C30.9827 31.0939 31.2915 29.6032 30.447 28.7256Z" fill="#554E56"/>
<path d="M30.4475 28.7217L27.9688 26.1465C27.851 26.0241 27.6549 26.0241 27.5369 26.1465L26.9492 26.7571L28.8401 28.7216C29.6255 29.5375 29.4132 30.8832 28.4813 31.4209C28.8839 31.6556 29.3822 31.7187 29.866 31.5287C30.9832 31.09 31.292 29.5993 30.4475 28.7217Z" fill="#433F43"/>
<path d="M25.5422 38.1818H17.6709C17.1407 38.1818 16.7109 37.7521 16.7109 37.2219V29.3506C16.7109 28.8204 17.1407 28.3906 17.6709 28.3906H25.5422C26.0724 28.3906 26.5021 28.8204 26.5021 29.3506V37.2219C26.5021 37.7521 26.0724 38.1818 25.5422 38.1818Z" fill="white"/>
<path d="M25.5443 28.3906H23.2969C23.8271 28.3906 24.2568 28.8204 24.2568 29.3506V37.2219C24.2568 37.7521 23.8271 38.1818 23.2969 38.1818H25.5443C26.0745 38.1818 26.5043 37.7521 26.5043 37.2219V29.3505C26.5042 28.8203 26.0745 28.3906 25.5443 28.3906Z" fill="#F9F7F8"/>
<path d="M19.1253 31.2506C19.613 31.2506 20.0084 30.8552 20.0084 30.3675C20.0084 29.8798 19.613 29.4844 19.1253 29.4844C18.6376 29.4844 18.2422 29.8798 18.2422 30.3675C18.2422 30.8552 18.6376 31.2506 19.1253 31.2506Z" fill="#554E56"/>
<path d="M19.1253 34.1686C19.613 34.1686 20.0084 33.7732 20.0084 33.2854C20.0084 32.7977 19.613 32.4023 19.1253 32.4023C18.6376 32.4023 18.2422 32.7977 18.2422 33.2854C18.2422 33.7732 18.6376 34.1686 19.1253 34.1686Z" fill="#554E56"/>
<path d="M19.1253 37.0865C19.613 37.0865 20.0084 36.6911 20.0084 36.2034C20.0084 35.7157 19.613 35.3203 19.1253 35.3203C18.6376 35.3203 18.2422 35.7157 18.2422 36.2034C18.2422 36.6911 18.6376 37.0865 19.1253 37.0865Z" fill="#554E56"/>
<path d="M24.0784 31.2506C24.5661 31.2506 24.9615 30.8552 24.9615 30.3675C24.9615 29.8798 24.5661 29.4844 24.0784 29.4844C23.5907 29.4844 23.1953 29.8798 23.1953 30.3675C23.1953 30.8552 23.5907 31.2506 24.0784 31.2506Z" fill="#554E56"/>
<path d="M24.0772 29.4844C23.9435 29.4844 23.8167 29.5143 23.7031 29.5675C24.0038 29.7083 24.2121 30.0135 24.2121 30.3675C24.2121 30.7215 24.0038 31.0267 23.7031 31.1675C23.8167 31.2207 23.9435 31.2506 24.0772 31.2506C24.5649 31.2506 24.9604 30.8552 24.9604 30.3675C24.9604 29.8798 24.5649 29.4844 24.0772 29.4844Z" fill="#433F43"/>
<path d="M24.0784 34.1686C24.5661 34.1686 24.9615 33.7732 24.9615 33.2854C24.9615 32.7977 24.5661 32.4023 24.0784 32.4023C23.5907 32.4023 23.1953 32.7977 23.1953 33.2854C23.1953 33.7732 23.5907 34.1686 24.0784 34.1686Z" fill="#554E56"/>
<path d="M24.0784 37.0865C24.5661 37.0865 24.9615 36.6911 24.9615 36.2034C24.9615 35.7157 24.5661 35.3203 24.0784 35.3203C23.5907 35.3203 23.1953 35.7157 23.1953 36.2034C23.1953 36.6911 23.5907 37.0865 24.0784 37.0865Z" fill="#554E56"/>
<path d="M24.0851 32.4102C23.9513 32.4102 23.8245 32.44 23.7109 32.4933C24.0116 32.6341 24.2199 32.9393 24.2199 33.2933C24.2199 33.6473 24.0116 33.9524 23.7109 34.0933C23.8245 34.1465 23.9513 34.1764 24.0851 34.1764C24.5728 34.1764 24.9682 33.781 24.9682 33.2933C24.9682 32.8056 24.5728 32.4102 24.0851 32.4102Z" fill="#433F43"/>
<path d="M24.0851 35.3281C23.9513 35.3281 23.8245 35.358 23.7109 35.4112C24.0116 35.5521 24.2199 35.8572 24.2199 36.2112C24.2199 36.5652 24.0116 36.8704 23.7109 37.0112C23.8245 37.0645 23.9513 37.0943 24.0851 37.0943C24.5728 37.0943 24.9682 36.6989 24.9682 36.2112C24.9682 35.7235 24.5728 35.3281 24.0851 35.3281Z" fill="#433F43"/>
<path d="M19.1319 29.4922C18.9981 29.4922 18.8714 29.5221 18.7578 29.5753C19.0585 29.7161 19.2668 30.0213 19.2668 30.3753C19.2668 30.7293 19.0585 31.0345 18.7578 31.1753C18.8714 31.2285 18.9981 31.2584 19.1319 31.2584C19.6196 31.2584 20.015 30.863 20.015 30.3753C20.0151 29.8876 19.6197 29.4922 19.1319 29.4922Z" fill="#433F43"/>
<path d="M19.1319 32.4102C18.9981 32.4102 18.8714 32.44 18.7578 32.4933C19.0585 32.6341 19.2668 32.9393 19.2668 33.2933C19.2668 33.6473 19.0585 33.9524 18.7578 34.0933C18.8714 34.1465 18.9981 34.1764 19.1319 34.1764C19.6196 34.1764 20.015 33.781 20.015 33.2933C20.0151 32.8056 19.6197 32.4102 19.1319 32.4102Z" fill="#433F43"/>
<path d="M19.1319 35.3281C18.9981 35.3281 18.8714 35.358 18.7578 35.4112C19.0585 35.5521 19.2668 35.8572 19.2668 36.2112C19.2668 36.5652 19.0585 36.8704 18.7578 37.0112C18.8714 37.0645 18.9981 37.0943 19.1319 37.0943C19.6196 37.0943 20.015 36.6989 20.015 36.2112C20.0151 35.7235 19.6197 35.3281 19.1319 35.3281Z" fill="#433F43"/>
<path d="M31.0489 45.7131H20.9581C19.6942 45.7131 18.6602 44.679 18.6602 43.4151C18.6602 42.1513 19.6942 41.1172 20.9581 41.1172H31.049C32.3129 41.1172 33.347 42.1513 33.347 43.4151C33.3469 44.679 32.3128 45.7131 31.0489 45.7131Z" fill="#FED402"/>
<path d="M31.0512 41.1172H26.9688C28.2326 41.1172 29.2667 42.1513 29.2667 43.4151C29.2667 44.679 28.2326 45.7131 26.9688 45.7131H31.0512C32.315 45.7131 33.3491 44.679 33.3491 43.4151C33.3491 42.1512 32.315 41.1172 31.0512 41.1172Z" fill="#FAC600"/>
<path d="M30.9988 44.0039H21.0078C20.6843 44.0039 20.4219 43.7415 20.4219 43.418C20.4219 43.0944 20.6843 42.832 21.0078 42.832H30.9989C31.3225 42.832 31.5849 43.0944 31.5849 43.418C31.5849 43.7415 31.3225 44.0039 30.9988 44.0039Z" fill="white"/>
</svg>
