<svg width="33" height="32" viewBox="0 0 33 32" fill="none" xmlns="http://www.w3.org/2000/svg">
<g clip-path="url(#clip0_5388_28534)">
<path d="M31.2421 9.77249C30.4364 7.86725 29.2832 6.15632 27.8135 4.68658C26.3447 3.21779 24.6328 2.0645 22.7285 1.25785C20.7559 0.423888 18.6601 0 16.5 0C14.3403 0 12.2447 0.423826 10.272 1.25785C8.36675 2.0645 6.65532 3.21779 5.18602 4.68658C3.71729 6.15632 2.5635 7.86725 1.75779 9.77249C0.923388 11.7451 0.5 13.8409 0.5 16C0.5 18.1601 0.923326 20.2558 1.75785 22.2284C2.5635 24.1338 3.71735 25.8446 5.18608 27.3144C6.65532 28.7832 8.36675 29.9374 10.2721 30.7431C12.2447 31.5771 14.3404 31.9999 16.5001 31.9999C18.6602 31.9999 20.7559 31.577 22.7285 30.7431C24.6329 29.9374 26.3447 28.7832 27.8135 27.3144C29.2833 25.8446 30.4365 24.1338 31.2421 22.2284C32.0762 20.2558 32.5 18.1601 32.5 16C32.5 13.8409 32.0762 11.7451 31.2421 9.77249Z" fill="#FFCE54"/>
<path d="M25.9213 6.57328C23.4038 4.0547 20.0551 2.66797 16.4936 2.66797C12.9321 2.66797 9.58398 4.0547 7.0654 6.57322C4.54739 9.09179 3.16016 12.4404 3.16016 16.0009C3.16016 19.5624 4.54739 22.911 7.0654 25.4296C9.58392 27.9482 12.9321 29.3348 16.4936 29.3348C20.0552 29.3348 23.4038 27.9481 25.9213 25.4296C28.4399 22.911 29.8275 19.5624 29.8275 16.0009C29.8275 12.4404 28.4399 9.09179 25.9213 6.57328Z" fill="#ED5564"/>
<path d="M11.3828 28.3232C12.9795 28.9854 14.707 29.3319 16.4878 29.3319V15.999L11.3828 28.3232Z" fill="#434A54"/>
<path d="M21.5821 3.6748C19.9844 3.01271 18.2577 2.66602 16.4766 2.66602V16L21.5821 3.6748Z" fill="#434A54"/>
<path d="M21.5821 28.3232C23.1787 27.6621 24.6456 26.6855 25.9042 25.4266L16.4766 15.999L21.5821 28.3232Z" fill="#434A54"/>
<path d="M11.3779 3.6748C9.78077 4.33595 8.31398 5.31248 7.05469 6.57133L16.4829 16L11.3779 3.6748Z" fill="#434A54"/>
<path d="M28.8252 21.1055C29.4862 19.5087 29.8339 17.7812 29.8339 16H16.5L28.8252 21.1055Z" fill="#A0D468"/>
<path d="M4.18016 10.8945C3.51857 12.4912 3.17188 14.2188 3.17188 15.999H16.5054L4.18016 10.8945Z" fill="#434A54"/>
<path d="M28.8369 10.8935C28.1758 9.29584 27.1992 7.83004 25.9394 6.57031L16.5117 15.998L28.8369 10.8935Z" fill="#434A54"/>
<path d="M4.18359 21.1026C4.84518 22.7002 5.82177 24.167 7.08056 25.4257L16.5088 15.9971L4.18359 21.1026Z" fill="#434A54"/>
<path d="M22.434 16.001C22.434 19.2773 19.7778 21.9345 16.5005 21.9345C13.2231 21.9345 10.5664 19.2773 10.5664 16.001C10.5664 12.7236 13.2232 10.0664 16.5005 10.0664C19.7778 10.0664 22.434 12.7236 22.434 16.001Z" fill="#FFCE54"/>
<path d="M22.2983 8.47098C22.0385 8.73168 21.6157 8.73168 21.355 8.47098C21.0952 8.21122 21.0952 7.78833 21.355 7.52858C21.6157 7.26782 22.0385 7.26782 22.2983 7.52858C22.558 7.78833 22.558 8.21122 22.2983 8.47098Z" fill="#E6E9ED"/>
<path d="M16.5064 19.9999C16.1382 19.9999 15.8398 19.7021 15.8398 19.3339V12.667C15.8398 12.2988 16.1382 12 16.5064 12C16.8746 12 17.1729 12.2988 17.1729 12.667V19.3339C17.1729 19.7021 16.8746 19.9999 16.5064 19.9999Z" fill="#434A54"/>
<path d="M19.834 16.666H13.1665C12.7983 16.666 12.5 16.3681 12.5 15.999C12.5 15.6318 12.7983 15.333 13.1665 15.333H19.834C20.2012 15.333 20.5 15.6318 20.5 15.999C20.5 16.3681 20.2012 16.666 19.834 16.666Z" fill="#434A54"/>
<path d="M16.5 14C15.397 14 14.5 14.8974 14.5 16C14.5 17.1035 15.397 17.9999 16.5 17.9999C17.6035 17.9999 18.4999 17.1035 18.4999 16C18.4999 14.8975 17.6035 14 16.5 14Z" fill="#656D78"/>
</g>
<defs>
<clipPath id="clip0_5388_28534">
<rect width="32" height="32" fill="white" transform="translate(0.5)"/>
</clipPath>
</defs>
</svg>
