<svg width="56" height="56" viewBox="0 0 56 56" fill="none" xmlns="http://www.w3.org/2000/svg">
<path d="M47.1951 10.5403V26.5956C47.1951 30.5694 45.3737 35.1819 42.0679 39.5835C38.2153 44.7116 32.5402 49.2381 25.6562 52.6738L25.0018 53L24.3475 52.6738C17.4635 49.2381 11.7884 44.7116 7.93575 39.5835C4.62995 35.1819 2.80859 30.5694 2.80859 26.5956V10.5403L13.6059 3H36.3978L47.1951 10.5403Z" fill="#64A4C7"/>
<path d="M47.1972 10.5403V26.5956C47.1972 30.5694 45.3758 35.1819 42.07 39.5835C38.2173 44.7116 32.5423 49.2381 25.6582 52.6738L25.0039 53V3H36.3999L47.1972 10.5403Z" fill="#4D7E99"/>
<path d="M34.5537 8.85938H15.4495L8.66797 13.5949V26.5954C8.66797 31.0634 13.0636 39.7942 25.0016 46.3989C36.9396 39.7942 41.3353 31.0634 41.3353 26.5954V13.5949L34.5537 8.85938Z" fill="#00B3FE"/>
<path d="M41.3376 13.5949V26.5954C41.3376 31.0634 36.9419 39.7942 25.0039 46.3989V8.85938H34.556L41.3376 13.5949Z" fill="#0274F9"/>
<path d="M29.0844 16.0528C28.0384 15.0069 26.594 14.3594 25.0022 14.3594C23.464 14.3594 22.0148 14.9619 20.9219 16.0548C19.8291 17.1476 19.2266 18.5968 19.2266 20.135V24.099H30.7778V20.135C30.7778 18.5422 30.1303 17.0987 29.0844 16.0528ZM27.848 22.2757H22.1564V20.135C22.1564 19.3801 22.4542 18.6662 22.9933 18.1261C23.2638 17.8566 23.5763 17.6476 23.9172 17.505C24.257 17.3634 24.6242 17.2892 25.0022 17.2892C26.5716 17.2892 27.848 18.5656 27.848 20.135V22.2757Z" fill="#FFB528"/>
<path d="M30.7795 20.1272V24.0912H25.0039V22.2679H27.8497V20.1272C27.8497 18.5578 26.5733 17.2814 25.0039 17.2814V14.3516C26.5958 14.3516 28.0402 14.999 29.0861 16.045C30.132 17.0909 30.7795 18.5343 30.7795 20.1272Z" fill="#FE8C01"/>
<path d="M16.9648 21.1641H33.0377V33.7944H16.9648V21.1641Z" fill="#FEE158"/>
<path d="M25.0039 21.1641H33.0404V33.7944H25.0039V21.1641Z" fill="#FFB528"/>
<path d="M35.0148 7.39453H14.9886L7.20312 12.8313V26.5955C7.20312 29.453 8.65045 33.084 11.173 36.5568C14.2444 40.7855 18.7807 44.6323 24.2927 47.6813L25.0017 48.0739L25.7107 47.6813C31.2226 44.6323 35.7589 40.7855 38.8303 36.5568C41.3529 33.084 42.8002 29.453 42.8002 26.5955V12.8313L35.0148 7.39453ZM39.8704 26.5955C39.8704 30.4931 35.8947 38.4514 25.0017 44.7173C14.1087 38.4514 10.1329 30.4931 10.1329 26.5955V14.3587L15.9105 10.3243H34.0928L39.8704 14.3587V26.5955Z" fill="#EFF5FA"/>
<path d="M42.8025 12.8313V26.5955C42.8025 29.453 41.3551 33.084 38.8326 36.5568C35.7612 40.7855 31.2249 44.6323 25.7129 47.6813L25.0039 48.0739V44.7173C35.8969 38.4514 39.8726 30.4931 39.8726 26.5955V14.3587L34.0951 10.3243H25.0039V7.39453H35.017L42.8025 12.8313Z" fill="#C6E1EC"/>
<path d="M23.5352 25.9688H26.465V28.9972H23.5352V25.9688Z" fill="#FFB528"/>
<path d="M25.0039 25.9688H26.4688V28.9972H25.0039V25.9688Z" fill="#FE8C01"/>
</svg>
