<svg width="33" height="32" viewBox="0 0 33 32" fill="none" xmlns="http://www.w3.org/2000/svg">
<g clip-path="url(#clip0_5388_28527)">
<path d="M16.5 32C25.3366 32 32.5 24.8366 32.5 16C32.5 7.16344 25.3366 0 16.5 0C7.66344 0 0.5 7.16344 0.5 16C0.5 24.8366 7.66344 32 16.5 32Z" fill="#FF6464"/>
<path d="M16.5082 25.3797C21.6883 25.3797 25.8875 21.1805 25.8875 16.0004C25.8875 10.8204 21.6883 6.62109 16.5082 6.62109C11.3282 6.62109 7.12891 10.8204 7.12891 16.0004C7.12891 21.1805 11.3282 25.3797 16.5082 25.3797Z" fill="#EFF2FA"/>
<path d="M16.4963 5.51652C22.2858 5.51652 26.9791 10.2098 26.9791 15.9993C26.9791 21.7887 22.2858 26.482 16.4963 26.482C10.7069 26.482 6.01359 21.7887 6.01359 15.9993C6.01359 10.2098 10.7069 5.51652 16.4963 5.51652ZM16.4963 4.41309C10.1077 4.41309 4.91016 9.61059 4.91016 15.9993C4.91016 22.388 10.1077 27.5855 16.4963 27.5855C22.885 27.5855 28.0825 22.388 28.0825 15.9993C28.0825 9.61059 22.885 4.41309 16.4963 4.41309Z" fill="#D2555A"/>
<path d="M16.4969 0C15.5557 0 14.635 0.0859375 13.7383 0.241875V2.78594C13.7383 3.20481 14.109 3.53206 14.5227 3.4665C15.1662 3.3645 15.8252 3.31037 16.4969 3.31037C17.1686 3.31037 17.8277 3.3645 18.4711 3.4665C18.8848 3.53206 19.2555 3.20487 19.2555 2.78594V0.241875C18.3588 0.0859375 17.4382 0 16.4969 0Z" fill="#EFF2FA"/>
<path d="M13.7383 29.2153V31.7594C14.635 31.9153 15.5557 32.0013 16.4969 32.0013C17.4382 32.0013 18.3588 31.9153 19.2555 31.7594V29.2153C19.2555 28.7964 18.8848 28.4692 18.4711 28.5348C17.8277 28.6368 17.1686 28.6909 16.4969 28.6909C15.8252 28.6909 15.1662 28.6368 14.5227 28.5348C14.109 28.4692 13.7383 28.7964 13.7383 29.2153Z" fill="#EFF2FA"/>
<path d="M32.4944 16.0008C32.4944 15.0596 32.4085 14.1389 32.2525 13.2422H29.7085C29.2896 13.2422 28.9624 13.6129 29.0279 14.0266C29.1299 14.6701 29.184 15.3291 29.184 16.0008C29.184 16.6725 29.1299 17.3316 29.0279 17.975C28.9624 18.3887 29.2895 18.7594 29.7085 18.7594H32.2525C32.4085 17.8627 32.4944 16.9421 32.4944 16.0008Z" fill="#EFF2FA"/>
<path d="M3.28594 13.2422H0.741875C0.585937 14.1389 0.5 15.0596 0.5 16.0008C0.5 16.9421 0.585937 17.8627 0.741875 18.7594H3.28594C3.70481 18.7594 4.03206 18.3887 3.9665 17.975C3.8645 17.3316 3.81037 16.6725 3.81037 16.0008C3.81037 15.3291 3.8645 14.6701 3.9665 14.0266C4.03206 13.6129 3.70481 13.2422 3.28594 13.2422Z" fill="#EFF2FA"/>
<path d="M27.8229 4.68588C27.1573 4.02031 26.4455 3.43006 25.7012 2.90625L23.9022 4.70519C23.6061 5.00137 23.6368 5.49494 23.9757 5.74106C24.5028 6.12387 25.0071 6.55169 25.4821 7.02662C25.957 7.50156 26.3848 8.00587 26.7676 8.533C27.0137 8.87187 27.5072 8.90262 27.8035 8.60644L29.6024 6.8075C29.0786 6.06325 28.4884 5.3515 27.8229 4.68588Z" fill="#EFF2FA"/>
<path d="M5.20909 23.3935L3.41016 25.1924C3.93397 25.9367 4.52422 26.6485 5.18978 27.314C5.85534 27.9796 6.56716 28.5699 7.31141 29.0937L9.11034 27.2947C9.40653 26.9985 9.37578 26.505 9.03691 26.2589C8.50978 25.876 8.00553 25.4482 7.53053 24.9733C7.05559 24.4984 6.62778 23.994 6.24497 23.4669C5.99884 23.128 5.50534 23.0972 5.20909 23.3935Z" fill="#EFF2FA"/>
<path d="M27.8229 27.3141C28.4884 26.6485 29.0787 25.9367 29.6025 25.1925L27.8035 23.3935C27.5073 23.0973 27.0137 23.128 26.7676 23.4669C26.3848 23.994 25.957 24.4983 25.4821 24.9733C25.0071 25.4482 24.5028 25.876 23.9757 26.2588C23.6368 26.505 23.6061 26.9985 23.9022 27.2947L25.7012 29.0936C26.4455 28.5698 27.1572 27.9796 27.8229 27.3141Z" fill="#EFF2FA"/>
<path d="M9.11034 4.70512L7.31141 2.90625C6.56709 3.43006 5.85534 4.02025 5.18972 4.68581C4.52409 5.35137 3.93391 6.06319 3.41016 6.80744L5.20903 8.60637C5.50522 8.90256 5.99878 8.87181 6.24491 8.53294C6.62772 8.00581 7.05553 7.50156 7.53047 7.02656C8.00541 6.55162 8.50972 6.12381 9.03684 5.741C9.37584 5.49487 9.40659 5.00137 9.11034 4.70512Z" fill="#EFF2FA"/>
<path d="M3.76116 22.1053C4.21821 22.1053 4.58872 21.7348 4.58872 21.2778C4.58872 20.8207 4.21821 20.4502 3.76116 20.4502C3.30411 20.4502 2.93359 20.8207 2.93359 21.2778C2.93359 21.7348 3.30411 22.1053 3.76116 22.1053Z" fill="#EFF2FA"/>
<path d="M29.2494 11.5497C29.7065 11.5497 30.077 11.1791 30.077 10.7221C30.077 10.265 29.7065 9.89453 29.2494 9.89453C28.7924 9.89453 28.4219 10.265 28.4219 10.7221C28.4219 11.1791 28.7924 11.5497 29.2494 11.5497Z" fill="#EFF2FA"/>
<path d="M11.2299 4.08481C11.687 4.08481 12.0575 3.7143 12.0575 3.25725C12.0575 2.8002 11.687 2.42969 11.2299 2.42969C10.7729 2.42969 10.4023 2.8002 10.4023 3.25725C10.4023 3.7143 10.7729 4.08481 11.2299 4.08481Z" fill="#EFF2FA"/>
<path d="M21.7846 29.5702C22.2416 29.5702 22.6122 29.1997 22.6122 28.7426C22.6122 28.2856 22.2416 27.915 21.7846 27.915C21.3275 27.915 20.957 28.2856 20.957 28.7426C20.957 29.1997 21.3275 29.5702 21.7846 29.5702Z" fill="#EFF2FA"/>
<path d="M3.76116 11.5497C4.21821 11.5497 4.58872 11.1791 4.58872 10.7221C4.58872 10.265 4.21821 9.89453 3.76116 9.89453C3.30411 9.89453 2.93359 10.265 2.93359 10.7221C2.93359 11.1791 3.30411 11.5497 3.76116 11.5497Z" fill="#EFF2FA"/>
<path d="M29.2494 22.1053C29.7065 22.1053 30.077 21.7348 30.077 21.2778C30.077 20.8207 29.7065 20.4502 29.2494 20.4502C28.7924 20.4502 28.4219 20.8207 28.4219 21.2778C28.4219 21.7348 28.7924 22.1053 29.2494 22.1053Z" fill="#EFF2FA"/>
<path d="M21.7846 4.08481C22.2416 4.08481 22.6122 3.7143 22.6122 3.25725C22.6122 2.8002 22.2416 2.42969 21.7846 2.42969C21.3275 2.42969 20.957 2.8002 20.957 3.25725C20.957 3.7143 21.3275 4.08481 21.7846 4.08481Z" fill="#EFF2FA"/>
<path d="M11.2299 29.5702C11.687 29.5702 12.0575 29.1997 12.0575 28.7426C12.0575 28.2856 11.687 27.915 11.2299 27.915C10.7729 27.915 10.4023 28.2856 10.4023 28.7426C10.4023 29.1997 10.7729 29.5702 11.2299 29.5702Z" fill="#EFF2FA"/>
<path d="M25.7499 9.0625L24.793 9.615C25.353 10.3419 25.8249 11.1393 26.1805 11.9994L27.1423 11.4441C26.7757 10.5904 26.3012 9.79619 25.7499 9.0625Z" fill="#EFF2FA"/>
<path d="M20.5 6.31045C21.3601 6.66601 22.1574 7.13795 22.8844 7.69795L23.4369 6.74101C22.7031 6.1897 21.909 5.7152 21.0554 5.34863L20.5 6.31045Z" fill="#EFF2FA"/>
<path d="M15.1289 4.50309V5.61765C15.5814 5.55802 16.0395 5.51652 16.5082 5.51652C16.977 5.51652 17.435 5.55796 17.8875 5.61759V4.50309C17.4343 4.44896 16.9757 4.41309 16.5082 4.41309C16.0407 4.41309 15.5821 4.4489 15.1289 4.50309Z" fill="#EFF2FA"/>
<path d="M26.9918 16.0004C26.9918 16.4692 26.9503 16.9272 26.8907 17.3797H28.0052C28.0593 16.9265 28.0952 16.4679 28.0952 16.0004C28.0952 15.5329 28.0593 15.0743 28.0052 14.6211H26.8906C26.9503 15.0736 26.9918 15.5317 26.9918 16.0004Z" fill="#EFF2FA"/>
<path d="M6.01359 16.0004C6.01359 15.5317 6.05503 15.0736 6.11466 14.6211H5.00016C4.94603 15.0743 4.91016 15.5329 4.91016 16.0004C4.91016 16.4679 4.94609 16.9265 5.00016 17.3797H6.11466C6.05503 16.9272 6.01359 16.4692 6.01359 16.0004Z" fill="#EFF2FA"/>
<path d="M10.1188 7.69795C10.8457 7.13795 11.6431 6.66601 12.5032 6.31045L11.9479 5.34863C11.0943 5.71526 10.3001 6.18976 9.56641 6.74101L10.1188 7.69795Z" fill="#EFF2FA"/>
<path d="M27.1423 20.5553L26.1805 20C25.8249 20.8601 25.353 21.6574 24.793 22.3843L25.7498 22.9368C26.3012 22.2031 26.7757 21.4089 27.1423 20.5553Z" fill="#EFF2FA"/>
<path d="M17.8875 27.4964V26.3818C17.435 26.4415 16.977 26.4829 16.5082 26.4829C16.0395 26.4829 15.5814 26.4415 15.1289 26.3818V27.4964C15.5821 27.5505 16.0407 27.5864 16.5082 27.5864C16.9757 27.5864 17.4343 27.5505 17.8875 27.4964Z" fill="#EFF2FA"/>
<path d="M22.8844 24.3018C22.1575 24.8618 21.3601 25.3337 20.5 25.6893L21.0553 26.6511C21.9089 26.2844 22.7031 25.8099 23.4368 25.2586L22.8844 24.3018Z" fill="#EFF2FA"/>
<path d="M12.5033 25.6893C11.6432 25.3337 10.8458 24.8618 10.1189 24.3018L9.56641 25.2586C10.3002 25.8099 11.0943 26.2844 11.9479 26.6511L12.5033 25.6893Z" fill="#EFF2FA"/>
<path d="M8.19697 22.3852C7.63697 21.6584 7.16509 20.861 6.80947 20.001L5.84766 20.5563C6.21422 21.4099 6.68878 22.204 7.24003 22.9377L8.19697 22.3852Z" fill="#EFF2FA"/>
<path d="M5.84766 11.4441L6.80947 11.9994C7.16503 11.1393 7.63697 10.3419 8.19697 9.615L7.24003 9.0625C6.68878 9.79631 6.21428 10.5905 5.84766 11.4441Z" fill="#EFF2FA"/>
<path d="M10.4336 14.5398C10.4336 12.6911 11.9237 11.1924 13.7617 11.1924C14.6728 11.1924 15.4976 11.5611 16.0983 12.1578C16.321 12.3791 16.6841 12.3791 16.9068 12.1578C17.5075 11.5611 18.3323 11.1924 19.2433 11.1924C21.0814 11.1924 22.5715 12.6911 22.5715 14.5398C22.5715 17.9971 18.1196 21.1423 16.8417 21.9738C16.635 22.1083 16.3699 22.1083 16.1633 21.9738C14.8854 21.1421 10.4336 17.9971 10.4336 14.5398Z" fill="#FF6464"/>
</g>
<defs>
<clipPath id="clip0_5388_28527">
<rect width="32" height="32" fill="white" transform="translate(0.5)"/>
</clipPath>
</defs>
</svg>
