<svg width="32" height="32" viewBox="0 0 32 32" fill="none" xmlns="http://www.w3.org/2000/svg">
<g clip-path="url(#clip0_5388_28540)">
<path d="M16 8C11.5862 8 0 10.2069 0 19.5862C0 22.7541 2.16275 24 4.41381 24C8.27569 24 9.93106 21.2414 16 21.2414C22.0689 21.2414 23.7244 24 27.5862 24C29.8372 24 32 22.7541 32 19.5862C32 10.2069 20.4138 8 16 8Z" fill="#515262"/>
<path d="M11.2956 20.0455C8.97493 22.1341 5.493 22.3866 3.51843 20.6095C1.54387 18.8324 1.82443 15.6986 4.14512 13.6101C6.46581 11.5215 9.94775 11.269 11.9223 13.0461C13.8969 14.8232 13.6163 17.9569 11.2956 20.0455Z" fill="#464655"/>
<path d="M15.9927 11.8621C17.0379 11.8621 18.0235 11.9443 18.9015 12.0886C19.2102 12.1392 19.5207 12.0543 19.7641 11.8579C21.1857 10.7114 22.9713 9.8575 24.3565 9.693C21.244 8.42494 17.9286 8 15.9927 8C14.0568 8 10.7415 8.42494 7.62891 9.69287C9.01409 9.85744 10.7998 10.7114 12.2213 11.8578C12.4648 12.0542 12.7753 12.1391 13.0839 12.0884C13.9619 11.9442 14.9475 11.8621 15.9927 11.8621Z" fill="#464655"/>
<path d="M10.7147 19.5307C8.86946 21.1815 6.03628 21.3094 4.38665 19.8163C2.73703 18.3232 2.89553 15.7746 4.74078 14.1238C6.58603 12.4729 9.41921 12.345 11.0688 13.8381C12.7185 15.3313 12.5598 17.8798 10.7147 19.5307Z" fill="#515262"/>
<path d="M20.7037 20.0455C23.0244 22.1341 26.5063 22.3866 28.4809 20.6095C30.4555 18.8324 30.1749 15.6986 27.8542 13.6101C25.5335 11.5215 22.0516 11.269 20.077 13.0461C18.1025 14.8231 18.383 17.9569 20.7037 20.0455Z" fill="#464655"/>
<path d="M21.2915 19.5307C23.1368 21.1815 25.97 21.3094 27.6196 19.8163C29.2693 18.3232 29.1107 15.7746 27.2655 14.1238C25.4202 12.4729 22.587 12.345 20.9374 13.8381C19.2878 15.3312 19.4464 17.8798 21.2915 19.5307Z" fill="#515262"/>
<path d="M7.72444 20.1383C9.55271 20.1383 11.0348 18.6562 11.0348 16.828C11.0348 14.9997 9.55271 13.5176 7.72444 13.5176C5.89617 13.5176 4.41406 14.9997 4.41406 16.828C4.41406 18.6562 5.89617 20.1383 7.72444 20.1383Z" fill="#FFCD46"/>
<path d="M22.6396 20.7617C23.3424 20.7617 23.9121 20.192 23.9121 19.4892C23.9121 18.7865 23.3424 18.2168 22.6396 18.2168C21.9369 18.2168 21.3672 18.7865 21.3672 19.4892C21.3672 20.192 21.9369 20.7617 22.6396 20.7617Z" fill="#FFCD46"/>
<path d="M20.8383 17.9411C21.4004 17.9411 21.8562 17.4854 21.8562 16.9232C21.8562 16.361 21.4004 15.9053 20.8383 15.9053C20.2761 15.9053 19.8203 16.361 19.8203 16.9232C19.8203 17.4854 20.2761 17.9411 20.8383 17.9411Z" fill="#FFCD46"/>
<path d="M25.2451 19.1796C25.9478 19.1796 26.5175 18.61 26.5175 17.9072C26.5175 17.2045 25.9478 16.6348 25.2451 16.6348C24.5423 16.6348 23.9727 17.2045 23.9727 17.9072C23.9727 18.61 24.5423 19.1796 25.2451 19.1796Z" fill="#FF6464"/>
<path d="M23.182 16.5261C23.7442 16.5261 24.1999 16.0704 24.1999 15.5082C24.1999 14.946 23.7442 14.4902 23.182 14.4902C22.6198 14.4902 22.1641 14.946 22.1641 15.5082C22.1641 16.0704 22.6198 16.5261 23.182 16.5261Z" fill="#FF6464"/>
<path d="M27.8623 17.5986C28.565 17.5986 29.1347 17.0289 29.1347 16.3261C29.1347 15.6234 28.565 15.0537 27.8623 15.0537C27.1595 15.0537 26.5898 15.6234 26.5898 16.3261C26.5898 17.0289 27.1595 17.5986 27.8623 17.5986Z" fill="#82B9FF"/>
<path d="M25.5414 15.112C26.1036 15.112 26.5593 14.6563 26.5593 14.0941C26.5593 13.5319 26.1036 13.0762 25.5414 13.0762C24.9792 13.0762 24.5234 13.5319 24.5234 14.0941C24.5234 14.6563 24.9792 15.112 25.5414 15.112Z" fill="#82B9FF"/>
<path d="M11.0309 16.827C11.0309 16.5407 10.9907 16.2644 10.9224 15.9994H9.09984C8.79516 15.9994 8.54809 15.7524 8.54809 15.4477V13.6251C8.28316 13.5567 8.00678 13.5166 7.72053 13.5166C7.43428 13.5166 7.15791 13.5568 6.89297 13.6251V15.4477C6.89297 15.7524 6.64591 15.9994 6.34122 15.9994H4.51866C4.45041 16.2644 4.41016 16.5407 4.41016 16.827C4.41016 17.1132 4.45034 17.3896 4.51866 17.6545H6.34122C6.64591 17.6545 6.89297 17.9016 6.89297 18.2063V20.0289C7.15791 20.0972 7.43428 20.1374 7.72053 20.1374C8.00678 20.1374 8.28316 20.0972 8.54809 20.0289V18.2063C8.54809 17.9016 8.79516 17.6545 9.09984 17.6545H10.9224C10.9907 17.3896 11.0309 17.1133 11.0309 16.827Z" fill="#FFDC50"/>
<path d="M7.72362 17.3799C8.02835 17.3799 8.27537 17.1328 8.27537 16.8281C8.27537 16.5234 8.02835 16.2764 7.72362 16.2764C7.4189 16.2764 7.17188 16.5234 7.17188 16.8281C7.17188 17.1328 7.4189 17.3799 7.72362 17.3799Z" fill="#FFCD46"/>
<path d="M13.7939 20.1385C13.6527 20.1385 13.5115 20.0846 13.4038 19.9769C13.1883 19.7614 13.1883 19.4122 13.4038 19.1967L14.5072 18.0933C14.7227 17.8778 15.0719 17.8778 15.2874 18.0933C15.5029 18.3088 15.5029 18.658 15.2874 18.8735L14.184 19.9769C14.0762 20.0846 13.935 20.1385 13.7939 20.1385Z" fill="#464655"/>
<path d="M16.5556 20.1385C16.4144 20.1385 16.2733 20.0846 16.1655 19.9769C15.95 19.7614 15.95 19.4122 16.1655 19.1967L17.269 18.0933C17.4845 17.8778 17.8337 17.8778 18.0492 18.0933C18.2647 18.3088 18.2647 18.658 18.0492 18.8735L16.9457 19.9768C16.8379 20.0846 16.6967 20.1385 16.5556 20.1385Z" fill="#464655"/>
</g>
<defs>
<clipPath id="clip0_5388_28540">
<rect width="32" height="32" fill="white"/>
</clipPath>
</defs>
</svg>
